<?xml version="1.0" standalone="no"?>
<!DOCTYPE svg PUBLIC "-//W3C//DTD SVG 20010904//EN"
 "http://www.w3.org/TR/2001/REC-SVG-20010904/DTD/svg10.dtd">
<svg version="1.0" xmlns="http://www.w3.org/2000/svg"
 width="309.000000pt" height="163.000000pt" viewBox="0 0 309.000000 163.000000"
 preserveAspectRatio="xMidYMid meet">

<g transform="translate(0.000000,163.000000) scale(0.100000,-0.100000)"
fill="#000000" stroke="none">
<path d="M655 1319 c22 -5 50 -11 63 -14 37 -9 26 -40 -35 -94 -31 -28 -52
-51 -47 -51 18 0 100 57 122 85 46 58 20 86 -80 84 -61 -1 -62 -1 -23 -10z"/>
<path d="M750 1172 c-20 -16 -21 -21 -10 -43 7 -13 28 -42 47 -63 56 -67 41
-84 -76 -87 l-46 -1 45 -10 c62 -12 131 -4 147 18 18 25 18 26 -33 88 -59 73
-56 89 16 96 38 3 49 7 37 13 -35 14 -104 8 -127 -11z"/>
<path d="M1432 1137 c-10 -12 -42 -135 -42 -163 0 -10 8 -14 22 -12 19 3 24
14 37 77 9 41 21 76 27 78 6 2 22 -24 37 -57 24 -56 28 -61 54 -58 23 2 33 13
55 61 40 82 43 81 68 -45 10 -52 14 -58 36 -58 19 0 24 4 20 18 -2 9 -10 44
-17 77 -15 75 -33 97 -73 93 -27 -3 -35 -11 -60 -63 l-29 -60 -24 55 c-14 30
-30 58 -36 62 -19 12 -64 9 -75 -5z"/>
<path d="M2483 1142 c-50 -15 -66 -42 -88 -149 -6 -29 -4 -33 14 -33 14 0 23
8 27 25 6 23 10 25 71 25 65 0 65 0 59 -26 -6 -22 -4 -25 15 -22 19 2 25 14
36 63 8 33 11 70 8 82 -8 34 -82 52 -142 35z m95 -39 c5 -10 6 -29 3 -43 -6
-23 -12 -25 -69 -28 -61 -3 -62 -2 -62 23 0 38 33 65 80 65 27 0 42 -5 48 -17z"/>
<path d="M1057 1133 c-4 -3 -7 -16 -7 -28 0 -16 16 -30 60 -55 88 -50 79 -70
-31 -70 -33 0 -59 -4 -59 -10 0 -13 141 -13 175 0 21 8 26 16 23 38 -2 22 -14
33 -60 57 -78 40 -76 55 7 55 37 0 65 4 65 10 0 11 -162 14 -173 3z"/>
<path d="M1295 1063 c-9 -43 -18 -84 -20 -90 -3 -8 5 -13 19 -13 20 0 24 7 35
68 7 37 15 77 18 90 4 17 1 22 -15 22 -18 0 -23 -12 -37 -77z"/>
<path d="M1806 1123 c-4 -9 -9 -43 -13 -76 -8 -75 5 -87 93 -87 80 0 109 22
129 100 19 72 19 80 -4 80 -20 0 -24 -9 -36 -70 -4 -19 -13 -45 -21 -57 -17
-27 -73 -39 -104 -23 -23 12 -23 20 -4 118 6 28 4 32 -14 32 -11 0 -23 -8 -26
-17z"/>
<path d="M2085 1063 c-9 -43 -18 -84 -20 -90 -5 -16 160 -18 170 -3 4 6 -16
10 -53 10 -32 0 -61 2 -64 5 -3 3 1 31 8 63 19 78 18 92 -5 92 -16 0 -22 -13
-36 -77z"/>
<path d="M2315 1128 c-2 -7 -9 -40 -15 -73 -6 -33 -14 -68 -17 -78 -4 -15 0
-18 18 -15 20 3 25 12 36 68 7 36 15 75 18 88 4 17 1 22 -15 22 -11 0 -22 -6
-25 -12z"/>
<path d="M525 1120 c-14 -6 -4 -9 38 -9 64 -1 97 -14 97 -36 0 -38 -117 -131
-138 -111 -4 4 6 30 20 58 15 29 26 53 24 55 -5 5 -48 -54 -80 -109 -28 -48
-28 -48 -6 -48 39 0 146 59 184 100 44 49 48 86 10 100 -31 12 -121 12 -149 0z"/>
<path d="M512 770 c-18 -11 -37 -32 -42 -46 -6 -14 -10 -90 -10 -170 l0 -144
35 0 35 0 0 70 0 70 75 0 75 0 0 -70 0 -70 35 0 35 0 0 148 c0 97 -5 155 -13
172 -29 58 -158 81 -225 40z m148 -52 c15 -16 20 -35 20 -75 l0 -53 -75 0 -75
0 0 53 c0 71 19 97 70 97 27 0 45 -7 60 -22z"/>
<path d="M850 604 c0 -210 -10 -194 116 -194 116 0 164 29 164 100 0 41 -14
66 -48 84 -15 9 -21 15 -14 16 41 1 67 82 42 129 -15 29 -37 35 -153 40 l-107
6 0 -181z m171 126 c13 -8 19 -21 19 -45 0 -43 -33 -68 -82 -63 -33 3 -33 3
-36 61 l-3 57 41 0 c23 0 50 -5 61 -10z m7 -166 c18 -12 22 -24 20 -52 -4 -45
-39 -66 -93 -56 -35 6 -35 7 -35 58 0 29 3 56 7 59 12 13 79 7 101 -9z"/>
<path d="M1275 775 c-54 -27 -60 -46 -63 -212 l-4 -153 36 0 36 0 0 70 0 70
75 0 75 0 0 -70 0 -70 40 0 40 0 0 128 c0 206 -21 244 -138 250 -46 2 -76 -2
-97 -13z m139 -57 c10 -14 16 -44 16 -75 l0 -53 -75 0 -75 0 0 46 c0 45 13 82
34 96 6 4 28 8 48 8 27 0 41 -6 52 -22z"/>
<path d="M1660 772 c-52 -27 -75 -80 -74 -172 1 -135 46 -190 157 -190 123 0
167 51 167 192 0 95 -17 134 -72 168 -43 26 -130 27 -178 2z m154 -65 c30 -41
30 -173 0 -214 -22 -29 -58 -39 -101 -28 -33 8 -53 59 -53 134 0 103 27 144
93 139 30 -2 45 -10 61 -31z"/>
<path d="M2000 638 c0 -89 5 -157 11 -172 20 -44 70 -59 174 -54 51 3 97 8
104 12 7 5 11 62 11 184 l0 177 -32 0 -33 0 -5 -160 -5 -160 -57 -3 c-47 -2
-61 1 -78 18 -18 18 -20 32 -20 163 l0 142 -35 0 -35 0 0 -147z"/>
<path d="M2438 775 c-48 -27 -60 -72 -34 -123 8 -15 46 -49 84 -75 76 -52 88
-68 71 -99 -10 -18 -19 -20 -87 -16 -73 3 -77 2 -80 -19 -3 -18 3 -23 33 -29
19 -3 65 -4 102 -2 57 4 69 8 89 32 39 45 33 90 -19 140 -24 22 -62 53 -85 68
-31 20 -42 35 -42 53 0 30 25 38 105 33 54 -3 56 -2 53 22 -3 24 -6 25 -83 27
-56 2 -88 -2 -107 -12z"/>
<path d="M1720 352 c0 -16 13 -24 69 -41 38 -12 76 -21 85 -21 18 0 66 21 66
29 -1 22 -23 34 -71 35 -30 1 -75 6 -101 11 -44 7 -48 6 -48 -13z"/>
</g>
</svg>
