<?xml version="1.0" standalone="no"?>
<!DOCTYPE svg PUBLIC "-//W3C//DTD SVG 20010904//EN"
 "http://www.w3.org/TR/2001/REC-SVG-20010904/DTD/svg10.dtd">
<svg version="1.0" xmlns="http://www.w3.org/2000/svg"
 width="150.000000pt" height="48.000000pt" viewBox="0 0 150.000000 48.000000"
 preserveAspectRatio="xMidYMid meet">

<g transform="translate(0.000000,48.000000) scale(0.100000,-0.100000)"
fill="#000000" stroke="none">
<path d="M252 386 l-21 -55 47 -115 47 -116 48 0 c26 0 47 3 47 8 0 13 -135
332 -141 332 -3 0 -16 -24 -27 -54z"/>
<path d="M460 230 l0 -130 35 0 35 0 0 83 c0 90 13 117 56 117 36 0 44 -20 44
-112 l0 -88 35 0 35 0 0 105 c0 99 -2 107 -25 130 -29 30 -79 33 -114 9 -22
-16 -24 -16 -33 0 -5 9 -22 16 -38 16 l-30 0 0 -130z"/>
<path d="M800 347 c-35 -18 -53 -58 -40 -91 10 -28 29 -39 98 -56 32 -8 42
-15 40 -28 -4 -23 -56 -27 -101 -8 -35 14 -35 14 -42 -11 -9 -38 7 -47 90 -51
68 -4 76 -2 99 21 53 53 26 104 -68 131 -58 17 -64 24 -44 44 16 16 47 15 80
-2 25 -13 29 -13 38 4 16 29 12 37 -21 49 -42 15 -98 14 -129 -2z"/>
<path d="M1311 334 c-59 -49 -29 -114 59 -129 41 -7 66 -27 55 -45 -9 -15 -71
-12 -104 5 -27 13 -29 13 -40 -11 -15 -33 -16 -30 20 -43 42 -15 140 -13 160
2 31 24 42 56 29 87 -12 28 -35 42 -100 58 -44 10 -52 39 -15 48 17 4 40 1 61
-10 32 -15 35 -15 41 2 3 9 8 20 10 24 7 14 -57 38 -101 38 -33 0 -52 -6 -75
-26z"/>
<path d="M1000 343 c0 -5 21 -59 46 -120 l47 -113 -21 -47 -21 -48 31 -3 c17
-2 34 0 38 5 4 4 30 64 58 133 28 69 58 142 67 163 l16 38 -37 -3 c-36 -3 -39
-6 -64 -68 -15 -36 -30 -64 -35 -63 -5 1 -20 31 -34 67 -25 63 -28 66 -58 66
-18 0 -33 -3 -33 -7z"/>
</g>
</svg>
