<?xml version="1.0" standalone="no"?>
<!DOCTYPE svg PUBLIC "-//W3C//DTD SVG 20010904//EN"
 "http://www.w3.org/TR/2001/REC-SVG-20010904/DTD/svg10.dtd">
<svg version="1.0" xmlns="http://www.w3.org/2000/svg"
 width="1200.000000pt" height="1200.000000pt" viewBox="0 0 1200.000000 1200.000000"
 preserveAspectRatio="xMidYMid meet">

<g transform="translate(0.000000,1200.000000) scale(0.100000,-0.100000)"
fill="#000000" stroke="none">
<path d="M1692 11989 c-274 -46 -702 -309 -1054 -648 -317 -304 -518 -600
-607 -891 l-26 -85 -3 -4300 c-2 -2815 1 -4322 7 -4365 40 -258 272 -649 591
-994 326 -354 687 -604 985 -683 68 -17 220 -18 4410 -18 4167 0 4343 1 4425
18 316 68 707 304 1015 612 282 282 451 558 538 880 l22 80 3 4340 c2 3910 1
4348 -13 4418 -85 421 -534 1027 -1014 1368 -177 125 -332 203 -502 250 l-84
24 -4320 1 c-2491 1 -4343 -2 -4373 -7z m8708 -3226 l0 -1956 -512 7 c-282 4
-516 11 -520 14 -4 4 -17 100 -28 212 -11 113 -29 301 -40 418 -91 937 -289
1531 -622 1863 -175 176 -380 269 -688 313 -312 45 -615 55 -1847 63 l-1053 6
0 -1466 0 -1467 158 0 c404 0 873 81 1065 182 119 64 245 231 328 437 80 200
103 305 167 741 l47 325 503 3 502 2 0 -2330 0 -2330 -519 0 -518 0 -6 193
c-6 213 -25 360 -87 669 -87 430 -155 602 -290 738 -176 175 -407 242 -1075
310 -154 15 -282 26 -284 24 -8 -7 30 -2614 40 -2764 12 -190 24 -252 60 -327
48 -100 133 -163 265 -197 159 -40 608 -83 1077 -102 l167 -7 0 -513 0 -514
-2525 0 -2525 0 0 510 c0 400 3 511 12 515 7 2 171 13 363 25 571 35 736 56
852 111 182 87 209 233 223 1229 13 962 -12 4476 -40 5399 -11 356 -12 364
-96 441 -122 113 -331 150 -839 150 -161 0 -333 3 -383 6 l-92 7 0 502 c0 276
3 505 7 508 3 4 1974 7 4380 7 l4373 0 0 -1957z"/>
</g>
</svg>
