<?xml version="1.0" standalone="no"?>
<!DOCTYPE svg PUBLIC "-//W3C//DTD SVG 20010904//EN"
 "http://www.w3.org/TR/2001/REC-SVG-20010904/DTD/svg10.dtd">
<svg version="1.0" xmlns="http://www.w3.org/2000/svg"
 width="667.000000pt" height="599.000000pt" viewBox="0 0 667.000000 599.000000"
 preserveAspectRatio="xMidYMid meet">

<g transform="translate(0.000000,599.000000) scale(0.100000,-0.100000)"
fill="#000000" stroke="none">
<path d="M4325 5926 c-27 -13 -59 -31 -70 -41 -11 -9 2 -4 28 11 68 38 77 21
27 -48 -42 -59 -173 -308 -216 -411 -27 -64 -48 -112 -91 -207 -37 -81 -113
-259 -113 -264 0 -3 -13 -33 -29 -68 -16 -35 -41 -92 -56 -128 -15 -36 -54
-121 -85 -190 -55 -119 -81 -175 -152 -335 -49 -109 -375 -750 -455 -895 -178
-323 -579 -921 -742 -1106 -20 -23 -80 -93 -135 -155 -54 -63 -154 -171 -222
-240 -68 -70 -124 -129 -124 -132 0 -3 26 -21 58 -41 69 -42 216 -190 264
-266 134 -211 211 -349 241 -435 8 -22 26 -59 39 -82 l24 -43 47 30 c45 28
132 60 257 94 100 27 420 69 655 87 156 11 344 52 385 84 8 6 44 26 80 44 77
39 111 64 153 110 18 19 42 45 55 58 12 13 22 27 22 30 0 3 17 33 38 67 22 34
47 86 57 116 10 30 21 60 25 65 10 13 37 116 45 175 4 25 10 50 15 55 4 6 10
42 14 80 3 39 9 85 12 103 20 120 25 656 8 1022 -3 80 -8 174 -9 210 -5 121
-15 305 -20 365 -9 104 -12 972 -4 1156 4 97 12 210 18 250 6 41 13 97 16 124
26 247 26 244 72 367 13 38 32 72 41 77 56 31 141 -108 196 -321 28 -106 87
-378 92 -423 2 -16 6 -36 9 -44 3 -8 12 -64 21 -125 8 -61 17 -123 20 -139 2
-15 6 -46 9 -70 2 -23 13 -100 24 -172 11 -71 23 -155 26 -185 8 -88 35 -309
45 -380 5 -36 11 -92 14 -125 3 -33 12 -114 21 -180 9 -66 18 -142 21 -170 3
-27 9 -72 14 -100 5 -27 14 -102 20 -165 6 -63 15 -137 19 -165 5 -27 17 -95
26 -150 18 -105 65 -345 90 -455 9 -36 15 -78 15 -93 0 -15 6 -58 14 -95 8
-37 17 -92 21 -122 l6 -55 108 -2 c99 -2 119 -6 213 -41 155 -57 328 -183 553
-402 194 -189 521 -470 548 -470 6 0 -48 128 -113 264 -23 49 -55 126 -71 170
-30 81 -86 217 -145 353 -8 17 -14 36 -14 42 0 6 -6 25 -14 43 -8 18 -34 80
-57 138 -22 58 -50 124 -60 147 -10 23 -34 83 -53 135 -30 83 -70 185 -96 243
-5 11 -23 61 -40 110 -18 50 -38 106 -46 125 -7 19 -39 109 -69 200 -31 91
-72 210 -91 265 -33 94 -71 206 -229 670 -91 269 -178 519 -207 595 -14 36
-38 101 -53 145 -15 44 -33 94 -40 110 -7 17 -34 86 -61 155 -26 69 -51 130
-55 135 -4 6 -23 51 -44 100 -55 134 -214 440 -281 541 -73 109 -158 201 -230
249 -47 32 -65 37 -127 41 -61 4 -80 1 -122 -20z"/>
<path d="M4210 5853 c0 -5 -20 -28 -44 -53 -50 -52 -182 -244 -281 -410 -37
-63 -92 -151 -122 -196 -29 -45 -53 -84 -53 -88 0 -4 -40 -63 -90 -132 -49
-69 -90 -129 -90 -132 0 -4 -10 -18 -23 -32 -12 -14 -48 -56 -78 -95 -81 -101
-194 -224 -269 -291 -80 -72 -155 -134 -163 -134 -3 0 -32 -15 -64 -34 -56
-34 -104 -53 -228 -92 -33 -10 -98 -41 -145 -69 l-85 -50 50 -4 c121 -8 294
42 430 126 63 39 194 150 284 243 101 104 240 289 456 605 37 55 76 109 87
120 18 20 18 20 12 -15 -13 -72 -133 -457 -176 -565 -27 -67 -34 -74 -103
-106 -75 -34 -150 -87 -306 -214 -133 -109 -162 -132 -235 -185 -26 -19 -61
-47 -78 -61 -35 -30 -205 -133 -285 -174 -150 -75 -389 -138 -440 -115 -24 11
-29 9 -70 -37 -67 -73 -150 -179 -162 -207 -18 -39 3 -75 79 -139 37 -30 81
-66 97 -80 68 -57 386 -308 470 -371 50 -38 92 -70 94 -72 3 -3 -66 -115 -86
-139 -5 -5 -19 -26 -32 -45 -28 -40 -180 -230 -197 -245 -6 -5 -38 -44 -71
-85 -148 -183 -424 -415 -653 -547 -48 -28 -64 -41 -45 -37 79 18 138 46 196
93 35 28 82 64 104 78 63 43 243 203 325 290 66 69 173 194 306 358 23 28 57
73 76 100 19 28 59 86 89 130 198 285 543 904 699 1250 13 28 47 101 77 163
50 104 253 575 253 586 0 2 13 33 29 68 16 35 36 83 44 108 9 25 28 77 42 115
68 179 99 267 127 355 44 137 145 332 214 408 30 34 51 62 45 62 -6 0 -11 -3
-11 -7z"/>
</g>
</svg>
